<svg xmlns="http://www.w3.org/2000/svg" xmlns:xlink="http://www.w3.org/1999/xlink" id="Capa_1" x="0" y="0" version="1.1" viewBox="0 0 496 496" xml:space="preserve" style="enable-background:new 0 0 496 496"><path style="fill:#d1e5f1" d="M488,448H8c-4.416,0-8-3.584-8-8V56c0-4.416,3.584-8,8-8h480c4.416,0,8,3.584,8,8v384	C496,444.416,492.416,448,488,448z"/><path style="fill:#21a9f6" d="M496,112H0V56c0-4.416,3.584-8,8-8h480c4.416,0,8,3.584,8,8V112z"/><path style="fill:#fa5419" d="M368,8c0-4.416-3.584-8-8-8H136c-4.416,0-8,3.584-8,8v480c0,4.416,3.584,8,8,8h224	c4.416,0,8-3.584,8-8V8z"/><g><rect style="fill:#f1d9d0" width="176" height="320" x="160" y="64"/><circle style="fill:#f1d9d0" cx="248" cy="440" r="24"/><rect style="fill:#f1d9d0" width="64" height="16" x="216" y="24"/></g><g><rect style="fill:#d1e5f1" width="16" height="16" x="24" y="72"/><rect style="fill:#d1e5f1" width="16" height="16" x="56" y="72"/><rect style="fill:#d1e5f1" width="16" height="16" x="88" y="72"/><rect style="fill:#d1e5f1" width="48" height="16" x="424" y="72"/></g><g><rect style="fill:#fc9875" width="32" height="16" x="192" y="216"/><rect style="fill:#fc9875" width="64" height="16" x="240" y="216"/><rect style="fill:#fc9875" width="32" height="16" x="272" y="248"/><rect style="fill:#fc9875" width="64" height="16" x="192" y="248"/><rect style="fill:#fc9875" width="32" height="16" x="192" y="280"/><rect style="fill:#fc9875" width="64" height="16" x="240" y="280"/><rect style="fill:#fc9875" width="32" height="16" x="272" y="312"/><rect style="fill:#fc9875" width="64" height="16" x="192" y="312"/><path style="fill:#fc9875" d="M210.344,181.656l-24-24c-3.128-3.128-3.128-8.184,0-11.312l24-24l11.312,11.312L203.312,152 l18.344,18.344L210.344,181.656z"/><path style="fill:#fc9875" d="M285.656,181.656l-11.312-11.312L292.688,152l-18.344-18.344l11.312-11.312l24,24 c3.128,3.128,3.128,8.184,0,11.312L285.656,181.656z"/><rect style="fill:#fc9875" width="50.599" height="16" x="222.7" y="144.019" transform="matrix(-0.3164 0.9486 -0.9486 -0.3164 470.6771 -35.1398)"/></g></svg>